<svg width="85" height="67" viewBox="0 0 85 67" fill="none" xmlns="http://www.w3.org/2000/svg">
<path fill-rule="evenodd" clip-rule="evenodd" d="M0.649902 11.4125C0.649902 8.63762 1.7522 5.97645 3.7143 4.01435C5.6764 2.05225 8.33757 0.949951 11.1124 0.949951H73.8874C75.2614 0.949951 76.6219 1.22057 77.8912 1.74636C79.1606 2.27215 80.314 3.04281 81.2855 4.01435C82.257 4.98588 83.0277 6.13926 83.5535 7.40863C84.0793 8.67799 84.3499 10.0385 84.3499 11.4125V55.5875C84.3499 56.9614 84.0793 58.3219 83.5535 59.5913C83.0277 60.8606 82.257 62.014 81.2855 62.9856C80.314 63.9571 79.1606 64.7278 77.8912 65.2535C76.6219 65.7793 75.2614 66.0499 73.8874 66.0499H11.1124C8.33757 66.0499 5.6764 64.9477 3.7143 62.9856C1.7522 61.0235 0.649902 58.3623 0.649902 55.5875V11.4125ZM7.6249 38.429V55.5875C7.6249 57.5126 9.1873 59.075 11.1124 59.075H73.8874C74.8123 59.075 75.6994 58.7075 76.3534 58.0535C77.0075 57.3995 77.3749 56.5124 77.3749 55.5875V43.079L67.0519 32.7606C66.398 32.1075 65.5116 31.7407 64.5874 31.7407C63.6632 31.7407 62.7768 32.1075 62.1229 32.7606L53.2414 41.6375L55.4269 43.823C55.7695 44.1422 56.0444 44.5273 56.235 44.9551C56.4256 45.3828 56.5281 45.8447 56.5364 46.3129C56.5446 46.7812 56.4585 47.2463 56.2831 47.6806C56.1077 48.1148 55.8466 48.5093 55.5154 48.8405C55.1843 49.1716 54.7898 49.4327 54.3555 49.6081C53.9213 49.7835 53.4561 49.8697 52.9879 49.8614C52.5196 49.8531 52.0578 49.7506 51.63 49.56C51.2022 49.3694 50.8172 49.0946 50.4979 48.7519L26.3644 24.6231C25.7105 23.97 24.8241 23.6032 23.8999 23.6032C22.9757 23.6032 22.0893 23.97 21.4354 24.6231L7.6249 38.429ZM51.7999 19.55C51.7999 20.7832 51.31 21.966 50.4379 22.838C49.5659 23.71 48.3832 24.2 47.1499 24.2C45.9166 24.2 44.7339 23.71 43.8619 22.838C42.9898 21.966 42.4999 20.7832 42.4999 19.55C42.4999 18.3167 42.9898 17.1339 43.8619 16.2619C44.7339 15.3899 45.9166 14.9 47.1499 14.9C48.3832 14.9 49.5659 15.3899 50.4379 16.2619C51.31 17.1339 51.7999 18.3167 51.7999 19.55Z" fill="#004AAD"/>
</svg>
