<svg width="35" height="35" viewBox="0 0 35 35" fill="none" xmlns="http://www.w3.org/2000/svg">
<path d="M22.7991 4.44373L20.8991 3.38867C19.2309 2.46322 18.3968 2 17.5 2C16.6032 2 15.7691 2.46222 14.1009 3.38867L13.796 3.55848L22.2728 8.68207L26.088 6.66238C25.4743 5.92685 24.4844 5.37721 22.7991 4.44172M26.7606 7.99277L22.9625 10.0024V13.0531C22.9625 13.2529 22.8874 13.4446 22.7538 13.5859C22.6202 13.7273 22.439 13.8067 22.25 13.8067C22.061 13.8067 21.8798 13.7273 21.7462 13.5859C21.6126 13.4446 21.5375 13.2529 21.5375 13.0531V10.756L18.2125 12.5145V22C18.8946 21.8201 19.6708 21.3901 20.8991 20.7078L22.7991 19.6527C24.8426 18.5183 25.8647 17.9516 26.4328 16.9317C27 15.9128 27 14.6437 27 12.1085V11.991C27 10.0888 27 8.89912 26.7606 7.99277ZM16.7875 22V12.5145L8.2394 7.99277C8 8.89912 8 10.0888 8 11.9889V12.1065C8 14.6437 8 15.9128 8.56715 16.9317C9.13525 17.9516 10.1574 18.5193 12.2009 19.6537L14.1009 20.7078C15.3293 21.3901 16.1054 21.8201 16.7875 22ZM8.912 6.66338L17.5 11.2052L20.7404 9.49196L12.2988 4.38947L12.2009 4.44373C10.5166 5.37822 9.5257 5.92785 8.912 6.66439" fill="#AEAEAE"/>
</svg>
