<svg width="25" height="24" viewBox="0 0 25 24" fill="none" xmlns="http://www.w3.org/2000/svg">
<path d="M10.6538 11.5069L19.8227 6.2541M10.6538 11.5069L6.06884 8.88108M10.6538 11.5069V21.74M19.8227 6.2541C19.5046 5.70789 19.0482 5.25507 18.4996 4.94117L15.4808 3.21143M19.8227 6.2541C20.1351 6.79017 20.3077 7.40688 20.3077 8.04858V12.6425M6.06884 8.88108L1.48383 6.25296M6.06884 8.88108L15.4808 3.21143M15.4808 3.21143L12.462 1.48169C11.9116 1.16607 11.2883 1 10.6538 1C10.0194 1 9.39607 1.16607 8.84574 1.48169L2.80811 4.94117C2.25904 5.25492 1.80229 5.70661 1.48383 6.25296M1.48383 6.25296C1.16678 6.79784 0.999835 7.41703 1 8.04744V14.9641C1 16.2475 1.6894 17.431 2.80811 18.0715L10.6538 21.7285C11.2042 22.0441 12.8588 20.5928 13.4932 20.5927" stroke="black" stroke-width="1.3" stroke-linecap="round" stroke-linejoin="round"/>
<path fill-rule="evenodd" clip-rule="evenodd" d="M18.0362 24.0001C19.6929 24.0001 21.2817 23.3419 22.4532 22.1705C23.6246 20.999 24.2828 19.4101 24.2828 17.7534C24.2828 16.0967 23.6246 14.5079 22.4532 13.3364C21.2817 12.165 19.6929 11.5068 18.0362 11.5068C16.3795 11.5068 14.7906 12.165 13.6191 13.3364C12.4477 14.5079 11.7896 16.0967 11.7896 17.7534C11.7896 19.4101 12.4477 20.999 13.6191 22.1705C14.7906 23.3419 16.3795 24.0001 18.0362 24.0001ZM18.0362 13.7863C18.1868 13.7863 18.3312 13.8461 18.4377 13.9526C18.5442 14.0591 18.604 14.2035 18.604 14.3542V17.1856H21.4355C21.5861 17.1856 21.7305 17.2454 21.837 17.3519C21.9435 17.4584 22.0033 17.6028 22.0033 17.7534C22.0033 17.9041 21.9435 18.0485 21.837 18.155C21.7305 18.2615 21.5861 18.3213 21.4355 18.3213H18.604V21.1527C18.604 21.3033 18.5442 21.4478 18.4377 21.5543C18.3312 21.6608 18.1868 21.7206 18.0362 21.7206C17.8856 21.7206 17.7411 21.6608 17.6346 21.5543C17.5281 21.4478 17.4683 21.3033 17.4683 21.1527V18.3213H14.6369C14.4863 18.3213 14.3418 18.2615 14.2353 18.155C14.1288 18.0485 14.069 17.9041 14.069 17.7534C14.069 17.6028 14.1288 17.4584 14.2353 17.3519C14.3418 17.2454 14.4863 17.1856 14.6369 17.1856H17.4683V14.3542C17.4683 14.2035 17.5281 14.0591 17.6346 13.9526C17.7411 13.8461 17.8856 13.7863 18.0362 13.7863Z" fill="black"/>
</svg>
