<svg width="22" height="22" viewBox="0 0 22 22" fill="none" xmlns="http://www.w3.org/2000/svg">
<path d="M3.04998 18.9498C4.66041 20.5602 7.04247 21.2671 9.67212 20.9149C12.3018 20.5628 14.9636 19.1804 17.0721 17.0719C19.1806 14.9635 20.563 12.3016 20.9151 9.67194C21.2673 7.04228 20.5604 4.66023 18.95 3.0498C17.3396 1.43937 14.9575 0.732484 12.3278 1.08465C9.69817 1.43682 7.03632 2.81919 4.92785 4.92767C2.81938 7.03614 1.437 9.69799 1.08484 12.3277C0.732667 14.9573 1.43955 17.3394 3.04998 18.9498Z" stroke="black" stroke-width="2" stroke-linecap="round" stroke-linejoin="round"/>
<path d="M18.8 3.19971C19 12.9997 2.99998 8.99971 3.19998 18.7997" stroke="black" stroke-width="2" stroke-linecap="round" stroke-linejoin="round"/>
</svg>
