<svg width="35" height="35" viewBox="0 0 35 35" fill="none" xmlns="http://www.w3.org/2000/svg">
<path d="M18.5747 17.4259L18.5544 17.4273L18.3989 17.4383L18.3813 17.4396H18.3636L13.1827 17.4396C13.1824 17.4396 13.1822 17.4396 13.182 17.4396H13.1818V16.9396C12.966 16.9399 12.7579 16.8668 12.5984 16.7345C12.4389 16.6022 12.3396 16.4204 12.3201 16.2249C12.3006 16.0293 12.3623 15.8342 12.493 15.678C12.6237 15.5217 12.814 15.4157 13.0264 15.3807L18.5747 17.4259ZM18.5747 17.4259L18.5949 17.4228C18.9213 17.3727 19.2256 17.211 19.441 16.9567C19.6579 16.7008 19.7669 16.3709 19.7332 16.0333C19.6997 15.6964 19.5285 15.3947 19.2706 15.1833C19.0147 14.9736 18.6897 14.8648 18.3608 14.8681L18.5747 17.4259ZM18.3838 12.7143H18.3636L13.1827 12.7143C13.1824 12.7143 13.1822 12.7143 13.182 12.7143H13.1818V12.2143C12.966 12.2146 12.7579 12.1415 12.5984 12.0092C12.4389 11.8769 12.3396 11.6951 12.3201 11.4996C12.3006 11.304 12.3623 11.1089 12.493 10.9527C12.6237 10.7965 12.814 10.6904 13.0264 10.6554L18.3838 12.7143ZM18.3838 12.7143L18.4039 12.7127L18.5594 12.7001L18.58 12.6984L18.6004 12.6951C18.9236 12.6418 19.2238 12.4789 19.4359 12.2253C19.6494 11.9702 19.7562 11.6427 19.7229 11.308C19.6895 10.9739 19.5209 10.6743 19.2663 10.4631L18.9471 10.8479L19.2663 10.4631C19.013 10.2531 18.6906 10.1425 18.3635 10.1429L18.3838 12.7143ZM18.5594 7.9748L18.58 7.97314L18.3636 5.91757V5.41757H18.3633H13.1818H13.1616L13.1415 5.4192L12.9861 5.43177L12.9655 5.43343L12.9451 5.43679C12.6218 5.49004 12.3217 5.65301 12.1095 5.90657L12.493 6.22741L12.1095 5.90657C11.8961 6.1617 11.7892 6.48917 11.8226 6.82389L12.3201 6.77428C12.3396 6.96982 12.4389 7.15163 12.5984 7.28392C12.7579 7.4162 12.966 7.48936 13.1818 7.489V7.989H13.1824C13.1825 7.989 13.1826 7.989 13.1827 7.989L18.3636 7.989H18.3838L18.4039 7.98737L18.5594 7.9748ZM26.5 7.89259V7.89286V18.0443C26.5 19.4752 25.8756 20.8582 24.7461 21.8858C23.6151 22.9148 22.0717 23.5 20.4536 23.5H13.1818C12.8419 23.5 12.5242 23.3767 12.2969 23.1699C12.2162 23.0965 12.1495 23.0151 12.097 22.9286H20.0909C21.5834 22.9286 23.0231 22.3896 24.0915 21.4176C25.1614 20.4442 25.7727 19.1133 25.7727 17.7143V6.31186C25.9052 6.43163 26.0223 6.56434 26.1217 6.70743C26.3711 7.0663 26.5002 7.47718 26.5 7.89259ZM8.5 4.69343C8.5 3.52608 9.55581 2.5 10.9588 2.5H20.5866C21.9896 2.5 23.0455 3.52608 23.0455 4.69343V18.1637C23.0455 19.3325 21.9898 20.3571 20.5866 20.3571H10.9591C10.2923 20.3568 9.66138 20.1151 9.20309 19.698C8.74638 19.2822 8.5 18.7292 8.5 18.1637V4.69343Z" stroke="#AEAEAE"/>
</svg>
