<svg width="19" height="22" viewBox="0 0 19 22" fill="none" xmlns="http://www.w3.org/2000/svg">
<path d="M17.7725 4.3125C17.9048 4.4322 18.0227 4.56404 18.1221 4.70703C18.3714 5.06589 18.5002 5.47717 18.5 5.89258V16.0439C18.5 17.4748 17.8756 18.8582 16.7461 19.8857C15.6151 20.9147 14.072 21.4999 12.4541 21.5H5.18164C4.84176 21.5 4.52416 21.3767 4.29688 21.1699C4.21645 21.0967 4.15102 21.0149 4.09863 20.9287H12.0908C13.5833 20.9287 15.0234 20.39 16.0918 19.418C17.1618 18.4445 17.7725 17.1129 17.7725 15.7139V4.3125ZM2.95898 0.5H12.5869C13.9898 0.500135 15.0459 1.52612 15.0459 2.69336V16.1641C15.0457 17.3326 13.9898 18.3573 12.5869 18.3574H2.95898L2.71094 18.3457C2.13732 18.2935 1.60409 18.0632 1.20312 17.6982C0.746505 17.2826 0.500101 16.7294 0.5 16.1641V2.69336C0.500042 1.52604 1.55601 0.5 2.95898 0.5ZM5.1416 12.8701L4.98633 12.8828L4.96582 12.8838L4.94531 12.8877C4.62206 12.9409 4.32151 13.1039 4.10938 13.3574C3.89607 13.6125 3.78892 13.9398 3.82227 14.2744C3.85558 14.6085 4.02472 14.908 4.2793 15.1191C4.53244 15.3291 4.85459 15.4388 5.18164 15.4385V15.4395H10.3809L10.3994 15.4385L10.5547 15.4277L10.5752 15.4258L10.5947 15.4229C10.9212 15.3728 11.2259 15.2113 11.4414 14.957C11.6582 14.7011 11.767 14.3708 11.7334 14.0332C11.6998 13.6964 11.5283 13.395 11.2705 13.1836C11.0153 12.9745 10.6913 12.8654 10.3633 12.8682H5.16211L5.1416 12.8701ZM5.1416 8.14453L4.98633 8.15723L4.96582 8.15918L4.94531 8.16211C4.62206 8.21536 4.32151 8.37827 4.10938 8.63184C3.89604 8.88686 3.78901 9.21426 3.82227 9.54883C3.85558 9.88291 4.02471 10.1834 4.2793 10.3945C4.53239 10.6043 4.85472 10.7132 5.18164 10.7129V10.7139H10.3838L10.4043 10.7129L10.5596 10.7002L10.5801 10.6982L10.6006 10.6953C10.9236 10.6421 11.2235 10.4789 11.4355 10.2256C11.649 9.97045 11.756 9.64234 11.7227 9.30762C11.6893 8.97372 11.521 8.67397 11.2666 8.46289C11.0133 8.25281 10.6905 8.14214 10.3633 8.14258H5.16211L5.1416 8.14453ZM5.1416 3.41895L4.98633 3.43164L4.96582 3.43359L4.94531 3.43652C4.62211 3.48976 4.32151 3.65275 4.10938 3.90625C3.89592 4.16138 3.78889 4.48949 3.82227 4.82422C3.85565 5.15818 4.02479 5.45784 4.2793 5.66895C4.53242 5.87882 4.85466 5.9886 5.18164 5.98828V5.98926H10.3838L10.4043 5.9873L10.5596 5.97461L10.5801 5.97266L10.6006 5.96973C10.9237 5.91645 11.2235 5.7534 11.4355 5.5C11.6489 5.24495 11.7559 4.91763 11.7227 4.58301C11.6894 4.24911 11.521 3.94942 11.2666 3.73828C11.0133 3.5282 10.6905 3.41753 10.3633 3.41797H5.16211L5.1416 3.41895Z" stroke="black"/>
</svg>
