<svg width="35" height="35" viewBox="0 0 20 20" fill="none" xmlns="http://www.w3.org/2000/svg">
<path d="M0 48C0 25.3726 0 14.0589 7.02944 7.02944C14.0589 0 25.3726 0 48 0H335C357.627 0 368.941 0 375.971 7.02944C383 14.0589 383 25.3726 383 48V72H0V48Z" fill="white"/>
<path d="M52.1437 44.7821V41.7152C52.1437 40.9381 52.7757 40.3067 53.5584 40.3018H56.4326C57.2189 40.3018 57.8563 40.9346 57.8563 41.7152V44.7732C57.8562 45.4473 58.404 45.9951 59.0829 46H61.0438C61.9596 46.0023 62.8388 45.6428 63.4872 45.0007C64.1356 44.3586 64.5 43.4868 64.5 42.5775V33.8658C64.5 33.1314 64.1721 32.4347 63.6046 31.9635L56.943 26.6743C55.7785 25.7491 54.1154 25.779 52.9854 26.7454L46.467 31.9635C45.8727 32.4208 45.5176 33.1196 45.5 33.8658V42.5686C45.5 44.4637 47.0474 46 48.9562 46H50.8723C51.1992 46.0023 51.5135 45.8751 51.7455 45.6464C51.9775 45.4178 52.1079 45.1067 52.1079 44.7821H52.1437Z" fill="#AEAEAE"/>
<path d="M145.799 28.4437L143.899 27.3887C142.231 26.4632 141.397 26 140.5 26C139.603 26 138.769 26.4622 137.101 27.3887L136.796 27.5585L145.273 32.6821L149.088 30.6624C148.474 29.9268 147.484 29.3772 145.799 28.4417M149.761 31.9928L145.963 34.0024V37.0531C145.963 37.2529 145.887 37.4446 145.754 37.5859C145.62 37.7273 145.439 37.8067 145.25 37.8067C145.061 37.8067 144.88 37.7273 144.746 37.5859C144.613 37.4446 144.538 37.2529 144.538 37.0531V34.756L141.213 36.5145V46C141.895 45.8201 142.671 45.3901 143.899 44.7078L145.799 43.6527C147.843 42.5183 148.865 41.9516 149.433 40.9317C150 39.9128 150 38.6437 150 36.1085V35.991C150 34.0888 150 32.8991 149.761 31.9928ZM139.788 46V36.5145L131.239 31.9928C131 32.8991 131 34.0888 131 35.9889V36.1065C131 38.6437 131 39.9128 131.567 40.9317C132.135 41.9516 133.157 42.5193 135.201 43.6537L137.101 44.7078C138.329 45.3901 139.105 45.8201 139.788 46ZM131.912 30.6634L140.5 35.2052L143.74 33.492L135.299 28.3895L135.201 28.4437C133.517 29.3782 132.526 29.9279 131.912 30.6644" fill="#004AAD"/>
<rect x="136" y="54" width="10" height="5" rx="2.5" fill="#004AAD"/>
<path d="M232.575 41.4259L232.554 41.4273L232.399 41.4383L232.381 41.4396H232.364L227.183 41.4396C227.182 41.4396 227.182 41.4396 227.182 41.4396H227.182V40.9396C226.966 40.9399 226.758 40.8668 226.598 40.7345C226.439 40.6022 226.34 40.4204 226.32 40.2249C226.301 40.0293 226.362 39.8342 226.493 39.678C226.624 39.5217 226.814 39.4157 227.026 39.3807L232.575 41.4259ZM232.575 41.4259L232.595 41.4228C232.921 41.3727 233.226 41.211 233.441 40.9567C233.658 40.7008 233.767 40.3709 233.733 40.0333C233.7 39.6964 233.528 39.3947 233.271 39.1833C233.015 38.9736 232.69 38.8648 232.361 38.8681L232.575 41.4259ZM232.384 36.7143H232.364L227.183 36.7143C227.182 36.7143 227.182 36.7143 227.182 36.7143H227.182V36.2143C226.966 36.2146 226.758 36.1415 226.598 36.0092C226.439 35.8769 226.34 35.6951 226.32 35.4996C226.301 35.304 226.362 35.1089 226.493 34.9527C226.624 34.7965 226.814 34.6904 227.026 34.6554L232.384 36.7143ZM232.384 36.7143L232.404 36.7127L232.559 36.7001L232.58 36.6984L232.6 36.6951C232.924 36.6418 233.224 36.4789 233.436 36.2253C233.649 35.9702 233.756 35.6427 233.723 35.308C233.69 34.9739 233.521 34.6743 233.266 34.4631L232.947 34.8479L233.266 34.4631C233.013 34.2531 232.691 34.1425 232.363 34.1429L232.384 36.7143ZM232.559 31.9748L232.58 31.9731L232.364 29.9176V29.4176H232.363H227.182H227.162L227.142 29.4192L226.986 29.4318L226.965 29.4334L226.945 29.4368C226.622 29.49 226.322 29.653 226.11 29.9066L226.493 30.2274L226.11 29.9066C225.896 30.1617 225.789 30.4892 225.823 30.8239L226.32 30.7743C226.34 30.9698 226.439 31.1516 226.598 31.2839C226.758 31.4162 226.966 31.4894 227.182 31.489V31.989H227.182C227.182 31.989 227.183 31.989 227.183 31.989L232.364 31.989H232.384L232.404 31.9874L232.559 31.9748ZM240.5 31.8926V31.8929V42.0443C240.5 43.4752 239.876 44.8582 238.746 45.8858C237.615 46.9148 236.072 47.5 234.454 47.5H227.182C226.842 47.5 226.524 47.3767 226.297 47.1699C226.216 47.0965 226.149 47.0151 226.097 46.9286H234.091C235.583 46.9286 237.023 46.3896 238.091 45.4176C239.161 44.4442 239.773 43.1133 239.773 41.7143V30.3119C239.905 30.4316 240.022 30.5643 240.122 30.7074C240.371 31.0663 240.5 31.4772 240.5 31.8926ZM222.5 28.6934C222.5 27.5261 223.556 26.5 224.959 26.5H234.587C235.99 26.5 237.045 27.5261 237.045 28.6934V42.1637C237.045 43.3325 235.99 44.3571 234.587 44.3571H224.959C224.292 44.3568 223.661 44.1151 223.203 43.698C222.746 43.2822 222.5 42.7292 222.5 42.1637V28.6934Z" stroke="#AEAEAE"/>
<path d="M327.424 36.0698C327.436 36.0715 327.45 36.0728 327.469 36.0729C327.483 36.0729 327.493 36.0721 327.502 36.071L331.997 31.5756C331.999 31.5642 332 31.5496 332 31.5314C332 31.5175 331.999 31.5067 331.998 31.4985L327.503 27.0032C327.503 27.0029 327.502 27.0025 327.502 27.0021L327.424 36.0698ZM327.424 36.0698L322.931 31.5759C322.929 31.5648 322.927 31.5503 322.927 31.5314C322.927 31.5167 322.928 31.5059 322.929 31.4982L327.424 27.0034C327.435 27.0015 327.45 27.0001 327.469 27C327.483 26.9999 327.494 27.0009 327.502 27.0021L327.424 36.0698ZM313 34.3444C313.001 34.6439 313.102 34.8954 313.305 35.0988C313.508 35.3023 313.759 35.404 314.06 35.404H320.417L314.024 34.4023C314.024 34.4023 314.024 34.4022 314.024 34.4021C314.024 34.402 314.023 34.4019 314.023 34.4017L314.021 34.4007C314.02 34.4004 314.02 34.4003 314.02 34.4004C314.02 34.4004 314.021 34.4006 314.022 34.401M313 34.3444H314V34.3428M313 34.3444L314 34.342C314 34.3423 314 34.3425 314 34.3428M313 34.3444V27.9868C313 27.6865 313.102 27.4351 313.305 27.2323L314.003 27.9494M314 34.3428C314 34.3608 314.002 34.3719 314.003 34.3772C314.003 34.3794 314.003 34.3808 314.004 34.3818M314 34.3428V27.9868C314 27.9683 314.002 27.9572 314.002 27.9521C314.003 27.951 314.003 27.9501 314.003 27.9494M314.004 34.3818C314.003 34.3814 314.003 34.3811 314.003 34.381C314.003 34.3806 314.003 34.3814 314.004 34.3826C314.004 34.3833 314.004 34.3832 314.004 34.3818ZM314.004 34.3818C314.005 34.3833 314.008 34.3871 314.014 34.3929C314.018 34.3971 314.021 34.3996 314.022 34.401M314.022 34.401C314.023 34.4011 314.024 34.4013 314.025 34.4015C314.03 34.4024 314.041 34.404 314.06 34.404H320.417H320.42C320.438 34.404 320.448 34.4025 320.453 34.4017L314.022 34.401ZM314.003 27.9494C314.004 27.9477 314.007 27.9448 314.011 27.9407C314.017 27.9348 314.021 27.9319 314.022 27.9308C314.023 27.9305 314.025 27.9302 314.027 27.9298C314.032 27.9288 314.043 27.9273 314.061 27.9272M314.003 27.9494L314.061 27.9272M314.061 27.9272H320.417C320.436 27.9272 320.447 27.9287 320.452 27.9297C320.454 27.93 320.455 27.9302 320.456 27.9304C320.457 27.9317 320.461 27.9345 320.466 27.9394C320.47 27.9438 320.473 27.947 320.474 27.9488C320.474 27.9494 320.474 27.95 320.474 27.9509C320.475 27.9557 320.477 27.9664 320.477 27.9844V27.9868V34.3444C320.477 34.3628 320.475 34.374 320.474 34.3793C320.474 34.3807 320.474 34.3819 320.474 34.3827C320.472 34.3844 320.47 34.3878 320.465 34.3928C320.46 34.3972 320.457 34.3998 320.455 34.4012L314.061 27.9272ZM331.073 38.5828V38.5804C331.073 38.5624 331.071 38.5517 331.071 38.5469L331.073 38.5828ZM331.073 38.5828V44.9404M331.073 38.5828V44.9404M320.477 38.5828V38.5804C320.477 38.5624 320.475 38.5517 320.474 38.5469L320.477 38.5828ZM320.477 38.5828V44.9404M320.477 38.5828V44.9404M324.596 38.5828V44.9388C324.596 44.9568 324.598 44.9679 324.599 44.9733C324.599 44.9754 324.599 44.9769 324.6 44.9778C324.601 44.9793 324.604 44.9831 324.61 44.989C324.613 44.9923 324.615 44.9946 324.617 44.996C324.618 44.9964 324.618 44.9967 324.618 44.997L324.596 38.5828ZM324.596 38.5828C324.596 38.5643 324.598 38.5532 324.599 38.5481M324.596 38.5828L324.599 38.5481M324.599 38.5481C324.599 38.547 324.599 38.5462 324.599 38.5455M324.599 38.5481L324.599 38.5455M324.599 38.5455C324.6 38.5438 324.603 38.5408 324.607 38.5367C324.613 38.5309 324.617 38.5279 324.618 38.5268C324.619 38.5266 324.621 38.5262 324.623 38.5258C324.628 38.5248 324.639 38.5233 324.657 38.5232H331.013C331.032 38.5232 331.043 38.5247 331.048 38.5257C331.05 38.526 331.051 38.5262 331.052 38.5264C331.053 38.5277 331.057 38.5305 331.062 38.5355C331.066 38.5399 331.069 38.543 331.07 38.5448L324.599 38.5455ZM331.073 44.9404C331.073 44.9589 331.071 44.97 331.07 44.9753M331.073 44.9404L331.07 44.9753M331.07 44.9753C331.07 44.9768 331.07 44.9779 331.07 44.9787M331.07 44.9753L331.07 44.9787M331.07 44.9787C331.068 44.9804 331.066 44.9838 331.061 44.9888C331.057 44.9926 331.054 44.9952 331.052 44.9967L331.07 44.9787ZM314 38.5828V44.9388C314 44.9568 314.002 44.9679 314.003 44.9733C314.003 44.9754 314.003 44.9769 314.004 44.9778C314.005 44.9793 314.008 44.9831 314.014 44.989C314.018 44.9931 314.021 44.9956 314.022 44.997L314 38.5828ZM314 38.5828C314 38.5643 314.002 38.5532 314.002 38.5481M314 38.5828L314.002 38.5481M314.002 38.5481C314.003 38.547 314.003 38.5462 314.003 38.5455M314.002 38.5481L314.003 38.5455M314.003 38.5455C314.004 38.5438 314.007 38.5408 314.011 38.5367C314.017 38.5308 314.021 38.5279 314.022 38.5268C314.023 38.5266 314.025 38.5262 314.027 38.5258C314.032 38.5248 314.043 38.5233 314.061 38.5232H320.417C320.436 38.5232 320.447 38.5247 320.452 38.5257C320.454 38.526 320.455 38.5262 320.456 38.5264C320.457 38.5277 320.461 38.5305 320.466 38.5355C320.47 38.5399 320.473 38.543 320.474 38.5448L314.003 38.5455ZM320.477 44.9404C320.477 44.9589 320.475 44.97 320.474 44.9753M320.477 44.9404L320.474 44.9753M320.474 44.9753C320.474 44.9768 320.474 44.9779 320.474 44.9787M320.474 44.9753L320.474 44.9787M320.474 44.9787C320.472 44.9804 320.47 44.9838 320.465 44.9888C320.46 44.9932 320.457 44.9958 320.455 44.9973L320.474 44.9787ZM326.737 37.9514C326.973 38.0336 327.216 38.0716 327.459 38.0728C327.708 38.0741 327.958 38.0351 328.2 37.948L328.047 37.5232L328.2 37.948L326.737 37.9514ZM331.016 45H331.013L331.049 44.9977C331.044 44.9986 331.034 45 331.016 45ZM320.42 45H320.417L320.453 44.9977C320.448 44.9986 320.438 45 320.42 45Z" stroke="#A2A2A2" stroke-width="2"/>
</svg>
