<svg width="24" height="24" viewBox="0 0 24 24" fill="none" xmlns="http://www.w3.org/2000/svg">
<path d="M7 19.6599V20.9999C7 21.2651 7.10536 21.5195 7.29289 21.707C7.48043 21.8945 7.73478 21.9999 8 21.9999H16C16.2652 21.9999 16.5196 21.8945 16.7071 21.707C16.8946 21.5195 17 21.2651 17 20.9999V19.6599C18.5202 18.7822 19.7825 17.5199 20.6602 15.9997C21.5379 14.4796 22 12.7552 22 10.9999C22 10.7347 21.8946 10.4803 21.7071 10.2928C21.5196 10.1052 21.2652 9.99989 21 9.99989C20.9817 9.38762 20.8066 8.79029 20.4914 8.26503C20.1763 7.73978 19.7316 7.30417 19.2 6.99989C19.0725 6.12883 18.6354 5.3329 17.9686 4.75802C17.3019 4.18314 16.4503 3.86782 15.57 3.86989C15.2325 3.87086 14.8965 3.91454 14.57 3.99989C13.8817 3.34274 12.9666 2.97607 12.015 2.97607C11.0634 2.97607 10.1483 3.34274 9.46 3.99989C9.13349 3.91454 8.79748 3.87086 8.46 3.86989C7.57623 3.86299 6.71981 4.17612 6.04892 4.75143C5.37802 5.32675 4.93795 6.1254 4.81 6.99989C4.27652 7.30293 3.82987 7.73799 3.51291 8.26333C3.19596 8.78867 3.01934 9.38665 3 9.99989C2.73478 9.99989 2.48043 10.1052 2.29289 10.2928C2.10536 10.4803 2 10.7347 2 10.9999C2.00004 12.7552 2.46213 14.4796 3.33981 15.9997C4.21749 17.5199 5.47985 18.7822 7 19.6599ZM6.11 8.65989L6.94 8.39989L6.78 7.49989C6.78261 7.28451 6.82762 7.07177 6.91246 6.87379C6.9973 6.67581 7.1203 6.49649 7.27445 6.34605C7.4286 6.19562 7.61087 6.07702 7.81086 5.99704C8.01084 5.91705 8.22463 5.87725 8.44 5.87989C8.7287 5.87903 9.01338 5.94762 9.27 6.07989L10.08 6.52989L10.58 5.75989C10.7364 5.52683 10.9477 5.33583 11.1953 5.20377C11.443 5.0717 11.7193 5.00262 12 5.00262C12.2807 5.00262 12.557 5.0717 12.8047 5.20377C13.0523 5.33583 13.2636 5.52683 13.42 5.75989L13.92 6.52989L14.73 6.07989C14.9866 5.94762 15.2713 5.87903 15.56 5.87989C15.9925 5.87445 16.4099 6.03908 16.7222 6.33833C17.0346 6.63758 17.2169 7.04752 17.23 7.47989L17.07 8.32989L17.89 8.60989C18.1925 8.70455 18.4598 8.88746 18.6576 9.13514C18.8554 9.38281 18.9746 9.68395 19 9.99989H5C5.0254 9.68395 5.14465 9.38281 5.34243 9.13514C5.54022 8.88746 5.80751 8.70455 6.11 8.60989V8.65989ZM19.94 11.9999C19.7732 13.3091 19.285 14.5567 18.519 15.6315C17.7531 16.7063 16.7331 17.5749 15.55 18.1599C15.3836 18.2437 15.2439 18.3725 15.1467 18.5315C15.0495 18.6905 14.9987 18.8735 15 19.0599V19.9999H9V19.0599C9.0013 18.8735 8.95049 18.6905 8.85331 18.5315C8.75612 18.3725 8.61644 18.2437 8.45 18.1599C7.26691 17.5749 6.24693 16.7063 5.48096 15.6315C4.71499 14.5567 4.22684 13.3091 4.06 11.9999H19.94Z" fill="black"/>
</svg>
