<svg width="60" height="60" viewBox="1 0 32 32" fill="none" xmlns="http://www.w3.org/2000/svg">
<path d="M22.6588 15.871C22.1338 15.6916 21.6051 15.5728 21.0087 15.5728C19.9769 15.5728 19.1449 15.9279 18.1846 16.3384C17.1076 16.7999 15.8855 17.3228 14.3018 17.3228C13.6392 17.3223 12.9798 17.2315 12.3418 17.053" stroke="black" stroke-width="2.1" stroke-linecap="round" stroke-linejoin="round"/>
<path d="M24.7236 12.6263C24.7236 12.6263 23.1705 27.4662 22.9051 29.3052C22.6397 31.1442 21.0464 31.7188 19.0113 31.7188H15.9882C13.9531 31.7188 12.3599 31.1434 12.0945 29.3052C11.829 27.467 10.502 15.26 10.502 15.26M21.6378 5.7976C20.1109 6.14615 18.9041 6.2125 17.4998 6.2125C16.0954 6.2125 10.6762 5.9799 10.6762 4.63021C10.6762 3.45844 16.1063 3.28125 17.4998 3.28125C18.8932 3.28125 23.7976 3.40521 24.1789 4.87885C24.397 5.71885 24.9008 8.56844 24.9008 8.56844" stroke="black" stroke-width="2.1" stroke-linecap="round" stroke-linejoin="round"/>
<path d="M17.5001 9.42363C20.5531 9.42363 24.1909 8.77175 25.3416 8.56832C26.3259 8.39332 26.7124 9.22602 26.8896 10.1995C27.0668 11.1729 27.104 12.123 26.0015 12.3556C24.899 12.5882 22.5787 13.2087 17.5001 13.2087C12.4215 13.2087 10.1012 12.5889 8.99802 12.3556C7.89479 12.1223 7.93343 11.1729 8.11062 10.1995C8.28781 9.22602 8.67427 8.39405 9.65864 8.56832C10.8093 8.77248 14.4471 9.42363 17.5001 9.42363Z" stroke="black" stroke-width="2.1" stroke-linecap="round" stroke-linejoin="round"/>
</svg>
