<svg width="24" height="24" viewBox="0 0 24 24" fill="none" xmlns="http://www.w3.org/2000/svg">
<path fill-rule="evenodd" clip-rule="evenodd" d="M12.594 23.2579L12.582 23.2599L12.511 23.2949L12.491 23.2989L12.477 23.2949L12.406 23.2589C12.3954 23.2563 12.3874 23.2583 12.382 23.2649L12.378 23.2749L12.361 23.7029L12.366 23.7229L12.376 23.7359L12.48 23.8099L12.495 23.8139L12.507 23.8099L12.611 23.7359L12.623 23.7199L12.627 23.7029L12.61 23.2759C12.6074 23.2653 12.602 23.2593 12.594 23.2579ZM12.858 23.1449L12.844 23.1469L12.66 23.2399L12.65 23.2499L12.647 23.2609L12.665 23.6909L12.67 23.7029L12.6781 23.7109L12.879 23.8029C12.8917 23.8063 12.9014 23.8036 12.908 23.7949L12.912 23.7809L12.878 23.1669C12.8747 23.1543 12.868 23.1469 12.858 23.1449ZM12.143 23.1469C12.1386 23.1443 12.1334 23.1434 12.1283 23.1445C12.1233 23.1456 12.1189 23.1487 12.116 23.1529L12.11 23.1669L12.076 23.7809C12.0767 23.7929 12.0824 23.8009 12.0931 23.8049L12.108 23.8029L12.309 23.7099L12.319 23.7019L12.322 23.6909L12.34 23.2609L12.337 23.2489L12.327 23.2389L12.143 23.1469Z" fill="black"/>
<path fill-rule="evenodd" clip-rule="evenodd" d="M14 2C14.5304 2 15.0391 2.21071 15.4142 2.58579C15.7893 2.96086 16 3.46957 16 4H17C17.5304 4 18.0391 4.21071 18.4142 4.58579C18.7893 4.96086 19 5.46957 19 6V9.003C19.2702 9.01722 19.5347 9.0861 19.7774 9.20549C20.0202 9.32488 20.2363 9.49228 20.4125 9.69757C20.5887 9.90286 20.7214 10.1418 20.8027 10.3998C20.8839 10.6579 20.9119 10.9298 20.885 11.199L20.175 18.299C20.1009 19.0392 19.7544 19.7254 19.2028 20.2245C18.6512 20.7236 17.9339 21 17.19 21H6.81C6.06613 21 5.34879 20.7236 4.79721 20.2245C4.24563 19.7254 3.89914 19.0392 3.825 18.299L3.115 11.199C3.08812 10.9298 3.11613 10.6579 3.19735 10.3998C3.27856 10.1418 3.4113 9.90286 3.58752 9.69757C3.76373 9.49228 3.97977 9.32488 4.22256 9.20549C4.46534 9.0861 4.72983 9.01722 5 9.003V5C5 4.46957 5.21072 3.96086 5.58579 3.58579C5.96086 3.21071 6.46957 3 7 3H8C8.53044 3 9.03914 3.21071 9.41422 3.58579C9.78929 3.96086 10 4.46957 10 5H11V4C11 3.46957 11.2107 2.96086 11.5858 2.58579C11.9609 2.21071 12.4696 2 13 2H14ZM6.76 11H5.105L5.815 18.1L5.834 18.215C5.87873 18.418 5.98558 18.602 6.13971 18.7414C6.29384 18.8808 6.48758 18.9688 6.694 18.993L6.81 19H17.19L17.307 18.993C17.5134 18.9688 17.7072 18.8808 17.8613 18.7414C18.0154 18.602 18.1223 18.418 18.167 18.215L18.185 18.099L18.895 11H17.24L17.221 11.01C17.1884 11.0336 17.1608 11.0635 17.14 11.098C16.606 11.9837 15.8521 12.7163 14.9515 13.2248C14.051 13.7332 13.0342 14.0003 12 14C10.9658 14.0003 9.94906 13.7332 9.04847 13.2248C8.14787 12.7163 7.394 11.9837 6.86 11.098C6.83959 11.0633 6.81238 11.033 6.78 11.009L6.76 11ZM14 4H13V11.874L13.262 11.797C13.4353 11.7397 13.6023 11.6713 13.763 11.592L14 11.465V4ZM11 7H10V11.465L10.237 11.592C10.3983 11.6713 10.565 11.7397 10.737 11.797L11 11.874V7ZM17 6H16V9.425L16.145 9.324C16.344 9.196 16.568 9.099 16.813 9.046L17 9.014V6ZM8 5H7V9.014C7.319 9.052 7.607 9.164 7.855 9.324L8 9.425V5Z" fill="black"/>
</svg>
