<svg width="24" height="24" viewBox="0 0 24 24" fill="none" xmlns="http://www.w3.org/2000/svg">
<g clip-path="url(#clip0_1_611)">
<path d="M8.95833 9.58343L14.8542 3.6876C15.0208 3.52093 15.2153 3.4376 15.4375 3.4376C15.6597 3.4376 15.8542 3.52093 16.0208 3.6876C16.1875 3.85427 16.2708 4.04871 16.2708 4.27093C16.2708 4.49316 16.1875 4.6876 16.0208 4.85427L10.1458 10.7501L8.95833 9.58343ZM11.0208 11.6459L16.3125 6.33343C16.4792 6.16677 16.6772 6.08343 16.9067 6.08343C17.1361 6.08343 17.3339 6.16677 17.5 6.33343C17.6661 6.5001 17.7494 6.69816 17.75 6.9276C17.7506 7.15704 17.6672 7.35482 17.5 7.52093L12.2083 12.8126L11.0208 11.6459ZM4.39583 15.6043C3.13194 14.3404 2.5 12.8195 2.5 11.0418C2.5 9.26399 3.13194 7.74316 4.39583 6.47927L6.89583 3.97927L8.125 5.20843C8.22222 5.30566 8.30556 5.40649 8.375 5.51093C8.44444 5.61538 8.51389 5.72288 8.58333 5.83343L11.6667 2.72927C11.8333 2.5626 12.0314 2.47927 12.2608 2.47927C12.4903 2.47927 12.6881 2.5626 12.8542 2.72927C13.0203 2.89593 13.1036 3.09371 13.1042 3.3226C13.1047 3.55149 13.0214 3.74955 12.8542 3.91677L9.25 7.52093L7.47917 9.27093L7.875 9.66677C8.51389 10.3057 8.81944 11.0695 8.79167 11.9584C8.76389 12.8473 8.42361 13.6182 7.77083 14.2709L6.58333 13.1043C6.90278 12.7848 7.08 12.4065 7.115 11.9693C7.15 11.532 7.0075 11.1534 6.6875 10.8334L5.70833 9.8751C5.54167 9.70843 5.45833 9.51066 5.45833 9.28177C5.45833 9.05288 5.54167 8.85482 5.70833 8.6876L6.89583 7.52093C7.0625 7.35427 7.14583 7.15621 7.14583 6.92677C7.14583 6.69732 7.0625 6.49955 6.89583 6.33343L5.5625 7.66677C4.61806 8.61121 4.14583 9.73982 4.14583 11.0526C4.14583 12.3654 4.61806 13.4937 5.5625 14.4376C6.50695 15.3815 7.63889 15.8537 8.95833 15.8543C10.2778 15.8548 11.4097 15.3826 12.3542 14.4376L17.3333 9.4376C17.5 9.27093 17.6981 9.1876 17.9275 9.1876C18.1569 9.1876 18.3547 9.27093 18.5208 9.4376C18.6869 9.60427 18.7703 9.80232 18.7708 10.0318C18.7714 10.2612 18.6881 10.459 18.5208 10.6251L13.5208 15.6043C12.2569 16.8682 10.7361 17.5001 8.95833 17.5001C7.18056 17.5001 5.65972 16.8682 4.39583 15.6043ZM14.1667 19.1876V17.5001C15.0833 17.5001 15.8681 17.1737 16.5208 16.5209C17.1736 15.8682 17.5 15.0834 17.5 14.1668H19.1875C19.1875 15.5557 18.6978 16.7398 17.7183 17.7193C16.7389 18.6987 15.555 19.1882 14.1667 19.1876ZM0.8125 5.83343C0.8125 4.44455 1.30222 3.26066 2.28167 2.28177C3.26111 1.30288 4.445 0.812879 5.83333 0.811768V2.5001C4.91667 2.5001 4.13194 2.82649 3.47917 3.47927C2.82639 4.13205 2.5 4.91677 2.5 5.83343H0.8125Z" fill="white"/>
</g>
<defs>
<clipPath id="clip0_1_611">
<rect width="20" height="20" fill="white"/>
</clipPath>
</defs>
</svg>
