<svg width="26" height="25" viewBox="0 0 26 25" fill="none" xmlns="http://www.w3.org/2000/svg">
<path d="M17.1146 12.8124L12.6875 8.38527C12.5833 8.2811 12.5097 8.16826 12.4667 8.04673C12.4236 7.9252 12.4017 7.79499 12.401 7.6561C12.4003 7.51721 12.4222 7.38701 12.4667 7.26548C12.5111 7.14395 12.5847 7.0311 12.6875 6.92694L17.1146 2.49985C17.2187 2.39569 17.3316 2.32208 17.4531 2.27902C17.5747 2.23596 17.7049 2.21409 17.8437 2.21339C17.9826 2.2127 18.1128 2.23458 18.2344 2.27902C18.3559 2.32346 18.4687 2.39708 18.5729 2.49985L23 6.92694C23.1042 7.0311 23.1781 7.14395 23.2219 7.26548C23.2656 7.38701 23.2872 7.51721 23.2865 7.6561C23.2858 7.79499 23.2642 7.9252 23.2219 8.04673C23.1795 8.16826 23.1056 8.2811 23 8.38527L18.5729 12.8124C18.4687 12.9165 18.3559 12.9905 18.2344 13.0342C18.1128 13.078 17.9826 13.0995 17.8437 13.0988C17.7049 13.0981 17.5747 13.0766 17.4531 13.0342C17.3316 12.9919 17.2187 12.9179 17.1146 12.8124ZM3.625 10.4165V4.16652C3.625 3.87138 3.725 3.62416 3.925 3.42485C4.125 3.22555 4.37222 3.12555 4.66667 3.12485H10.9167C11.2118 3.12485 11.4594 3.22485 11.6594 3.42485C11.8594 3.62485 11.959 3.87208 11.9583 4.16652V10.4165C11.9583 10.7117 11.8583 10.9592 11.6583 11.1592C11.4583 11.3592 11.2111 11.4589 10.9167 11.4582H4.66667C4.37153 11.4582 4.12431 11.3582 3.925 11.1582C3.72569 10.9582 3.62569 10.711 3.625 10.4165ZM14.0417 20.8332V14.5832C14.0417 14.288 14.1417 14.0408 14.3417 13.8415C14.5417 13.6422 14.7889 13.5422 15.0833 13.5415H21.3333C21.6285 13.5415 21.876 13.6415 22.076 13.8415C22.276 14.0415 22.3757 14.2887 22.375 14.5832V20.8332C22.375 21.1283 22.275 21.3759 22.075 21.5759C21.875 21.7759 21.6278 21.8755 21.3333 21.8749H15.0833C14.7882 21.8749 14.541 21.7749 14.3417 21.5749C14.1424 21.3749 14.0424 21.1276 14.0417 20.8332ZM3.625 20.8332V14.5832C3.625 14.288 3.725 14.0408 3.925 13.8415C4.125 13.6422 4.37222 13.5422 4.66667 13.5415H10.9167C11.2118 13.5415 11.4594 13.6415 11.6594 13.8415C11.8594 14.0415 11.959 14.2887 11.9583 14.5832V20.8332C11.9583 21.1283 11.8583 21.3759 11.6583 21.5759C11.4583 21.7759 11.2111 21.8755 10.9167 21.8749H4.66667C4.37153 21.8749 4.12431 21.7749 3.925 21.5749C3.72569 21.3749 3.62569 21.1276 3.625 20.8332ZM5.70833 9.37485H9.875V5.20819H5.70833V9.37485ZM17.8698 10.6249L20.8125 7.68214L17.8698 4.73944L14.9271 7.68214L17.8698 10.6249ZM16.125 19.7915H20.2917V15.6249H16.125V19.7915ZM5.70833 19.7915H9.875V15.6249H5.70833V19.7915Z" fill="#A2A2A2"/>
</svg>
