<svg width="35" height="35" viewBox="0 0 35 35" fill="none" xmlns="http://www.w3.org/2000/svg">
<path d="M15.4768 3.98677V3.98441C15.4769 3.9664 15.4754 3.95567 15.4745 3.95086L15.4768 3.98677ZM15.4768 3.98677V10.3444M15.4768 3.98677V10.3444M26.0728 14.5828V14.5804C26.0729 14.5624 26.0714 14.5517 26.0705 14.5469L26.0728 14.5828ZM26.0728 14.5828V20.9404M26.0728 14.5828V20.9404M15.4768 14.5828V14.5804C15.4769 14.5624 15.4754 14.5517 15.4745 14.5469L15.4768 14.5828ZM15.4768 14.5828V20.9404M15.4768 14.5828V20.9404M9 10.3428V3.98677C9 3.96831 9.00155 3.9572 9.0025 3.95207L9 10.3428ZM9 10.3428C9.00009 10.3608 9.00163 10.3719 9.00263 10.3772C9.00302 10.3794 9.00337 10.3808 9.00362 10.3818C9.00474 10.3833 9.00767 10.3871 9.0135 10.3929C9.01762 10.3971 9.02057 10.3996 9.02228 10.401L9 10.3428ZM9.00303 3.94945C9.00361 3.94688 9.00387 3.94663 9.00332 3.94797M9.00303 3.94945C9.00439 3.94774 9.0069 3.94479 9.01104 3.94067C9.0169 3.93483 9.02067 3.93191 9.02221 3.93079C9.02314 3.93054 9.02462 3.93019 9.02674 3.92979C9.03211 3.92879 9.04316 3.92725 9.06118 3.92717H15.4172C15.4357 3.92717 15.4468 3.92872 15.4521 3.92968C15.4536 3.92996 15.4547 3.93021 15.4556 3.93041C15.4573 3.93171 15.4606 3.93448 15.4656 3.93944C15.47 3.94385 15.4727 3.94698 15.4741 3.94878L9.00332 3.94797M9.00303 3.94945C9.00211 3.95061 9.00172 3.9512 9.00171 3.9512M9.00303 3.94945L9.00171 3.9512M9.00332 3.94797L9.00228 3.95021M9.00332 3.94797L9.00228 3.95021M9.00228 3.95021C9.00188 3.95096 9.00164 3.95132 9.00171 3.9512M9.00228 3.95021L9.00171 3.9512M15.4768 10.3444C15.4768 10.3628 15.4753 10.374 15.4743 10.3793M15.4768 10.3444L15.4743 10.3793M15.4743 10.3793C15.474 10.3807 15.4738 10.3819 15.4736 10.3827M15.4743 10.3793L15.4736 10.3827M15.4736 10.3827C15.4723 10.3844 15.4695 10.3878 15.4645 10.3928C15.4601 10.3972 15.457 10.3998 15.4552 10.4012L15.4736 10.3827ZM19.596 14.5828V20.9388C19.5961 20.9568 19.5976 20.9679 19.5986 20.9733C19.599 20.9754 19.5994 20.9769 19.5996 20.9778C19.6008 20.9793 19.6037 20.9831 19.6095 20.989C19.6135 20.9929 19.6163 20.9954 19.6181 20.9968C19.6182 20.9969 19.6182 20.9969 19.6183 20.997L19.596 14.5828ZM19.596 14.5828C19.596 14.5643 19.5976 14.5532 19.5985 14.5481M19.596 14.5828L19.5985 14.5481M19.5985 14.5481C19.5987 14.547 19.5989 14.5462 19.599 14.5455M19.5985 14.5481L19.599 14.5455M19.599 14.5455C19.6004 14.5437 19.6029 14.5408 19.6071 14.5367L18.9012 13.8283L19.6071 14.5367L19.599 14.5455ZM8.3081 13.8313L9.01104 14.5367C9.0069 14.5408 9.00439 14.5438 9.00303 14.5455L8.3081 13.8313ZM8.3081 13.8313L9.01104 14.5367C9.01689 14.5309 9.02066 14.5279 9.02221 14.5268M8.3081 13.8313L9.02221 14.5268M26.0728 20.9404C26.0728 20.9589 26.0713 20.97 26.0703 20.9753M26.0728 20.9404L26.0703 20.9753M26.0703 20.9753C26.07 20.9768 26.0698 20.9779 26.0696 20.9787M26.0703 20.9753L26.0696 20.9787M26.0696 20.9787C26.0683 20.9804 26.0655 20.9838 26.0606 20.9888C26.0562 20.9932 26.053 20.9958 26.0512 20.9973L26.0696 20.9787ZM9.02221 14.5268C9.02314 14.5266 9.02462 14.5262 9.02674 14.5258C9.03211 14.5248 9.04315 14.5233 9.06116 14.5232H15.4172C15.4357 14.5232 15.4468 14.5247 15.4521 14.5257C15.4536 14.526 15.4547 14.5262 15.4556 14.5264C15.4573 14.5277 15.4606 14.5305 15.4656 14.5355L16.1256 13.8755L15.4656 14.5355C15.47 14.5399 15.4727 14.543 15.4741 14.5448L9.02221 14.5268ZM15.4768 20.9404C15.4768 20.9589 15.4753 20.97 15.4743 20.9753M15.4768 20.9404L15.4743 20.9753M15.4743 20.9753C15.474 20.9768 15.4738 20.9779 15.4736 20.9787M15.4743 20.9753L15.4736 20.9787M15.4736 20.9787C15.4723 20.9804 15.4695 20.9838 15.4645 20.9888C15.4601 20.9932 15.457 20.9958 15.4552 20.9973L15.4736 20.9787ZM22.4686 12.0729C22.4503 12.0728 22.4358 12.0715 22.4244 12.0698L22.5018 3.00213C22.5022 3.00249 22.5025 3.00286 22.5029 3.00324L26.9981 7.49845C26.9992 7.50666 27.0001 7.51746 27 7.53144C26.9999 7.54965 26.9986 7.56416 26.9969 7.57564L22.5015 12.071C22.4933 12.0721 22.4825 12.0729 22.4686 12.0729ZM22.4241 3.00339C22.4352 3.00153 22.4497 3.0001 22.4686 3C22.4833 2.99993 22.4941 3.00091 22.5018 3.00213L22.4241 3.00339ZM15.4196 10.404H15.4172L15.4531 10.4017C15.4483 10.4025 15.4376 10.404 15.4196 10.404ZM26.0156 21H26.0132L26.0491 20.9977C26.0443 20.9985 26.0336 21 26.0156 21ZM15.4196 21H15.4172L15.4531 20.9977C15.4483 20.9985 15.4376 21 15.4196 21ZM19.6182 14.5268C19.6192 14.5266 19.6206 14.5262 19.6228 14.5258C19.6281 14.5248 19.6392 14.5233 19.6572 14.5232H26.0132C26.0317 14.5232 26.0429 14.5247 26.0481 14.5257C26.0496 14.526 26.0507 14.5262 26.0516 14.5264C26.0533 14.5277 26.0567 14.5305 26.0616 14.5355C26.066 14.5399 26.0687 14.543 26.0701 14.5448L19.6182 14.5268ZM9.00263 20.9733C9.00163 20.9679 9.00009 20.9568 9 20.9388L9.02228 20.997C9.02057 20.9956 9.01762 20.9931 9.0135 20.989C9.00767 20.9831 9.00474 20.9793 9.00362 20.9778C9.00337 20.9769 9.00302 20.9754 9.00263 20.9733Z" stroke="#A2A2A2" stroke-width="2"/>
</svg>
