<svg width="23" height="23" viewBox="0 0 23 23" fill="none" xmlns="http://www.w3.org/2000/svg">
<path d="M1.1585 2.7285C1.186 2.32116 1.36024 1.93761 1.64892 1.64892C1.93761 1.36024 2.32116 1.186 2.7285 1.1585C3.733 1.08 5.296 1 7.5 1C9.704 1 11.267 1.08 12.2715 1.1585C12.6788 1.186 13.0624 1.36024 13.3511 1.64892C13.6398 1.93761 13.814 2.32116 13.8415 2.7285C13.92 3.733 14 5.296 14 7.5C14 9.704 13.92 11.267 13.8415 12.2715C13.814 12.6788 13.6398 13.0624 13.3511 13.3511C13.0624 13.6398 12.6788 13.814 12.2715 13.8415C11.267 13.92 9.704 14 7.5 14C5.296 14 3.733 13.92 2.7285 13.8415C2.32116 13.814 1.93761 13.6398 1.64892 13.3511C1.36024 13.0624 1.186 12.6788 1.1585 12.2715C1.08 11.267 1 9.704 1 7.5C1 5.296 1.08 3.733 1.1585 2.7285ZM17.0145 10.543C17.042 9.689 17.689 9.042 18.543 9.0145C18.8177 9.00517 19.1367 9.00033 19.5 9C19.863 9.00033 20.182 9.00517 20.457 9.0145C21.311 9.042 21.958 9.689 21.9855 10.543C21.9948 10.8177 21.9997 11.1367 22 11.5C21.9997 11.863 21.9948 12.182 21.9855 12.457C21.958 13.311 21.311 13.958 20.457 13.9855C20.1823 13.9948 19.8633 13.9997 19.5 14C19.137 13.9997 18.818 13.9948 18.543 13.9855C17.689 13.958 17.042 13.311 17.0145 12.457C17.0046 12.1381 16.9997 11.8191 17 11.5C17.0003 11.137 17.0052 10.818 17.0145 10.543ZM1.1515 18.042C1.2925 17.4335 1.864 17.105 2.4885 17.0895C3.8775 17.0545 6.779 17 11.5 17C16.221 17 19.1225 17.054 20.5115 17.0895C21.136 17.1055 21.7075 17.4335 21.8485 18.042C21.9335 18.4085 22 18.8905 22 19.5C22 20.1095 21.933 20.5915 21.8485 20.958C21.7075 21.5665 21.136 21.895 20.5115 21.9105C19.1225 21.9455 16.221 22 11.5 22C6.779 22 3.8775 21.946 2.4885 21.9105C1.864 21.8945 1.2925 21.5665 1.1515 20.958C1.0665 20.5915 1 20.1095 1 19.5C1 18.8905 1.067 18.4085 1.1515 18.042ZM17.0145 2.543C17.042 1.689 17.689 1.042 18.543 1.0145C18.8177 1.00517 19.1367 1.00033 19.5 1C19.863 1.00033 20.182 1.00517 20.457 1.0145C21.311 1.042 21.958 1.689 21.9855 2.543C21.9948 2.81767 21.9997 3.13667 22 3.5C22.0005 4.045 21.9945 4.1815 21.9855 4.457C21.958 5.311 21.311 5.958 20.457 5.9855C20.1823 5.99483 19.8633 5.99967 19.5 6C19.137 5.99967 18.818 5.99483 18.543 5.9855C17.689 5.958 17.042 5.311 17.0145 4.457C17.0052 4.18233 17.0003 3.86333 17 3.5C16.9995 2.955 17.0055 2.8185 17.0145 2.543Z" stroke="black" stroke-width="1.6" stroke-linecap="round" stroke-linejoin="round"/>
</svg>
